<?xml version="1.0" encoding="UTF-8"?><svg id="Layer_2" xmlns="http://www.w3.org/2000/svg" viewBox="0 0 464.19 481.05"><defs><style>.cls-1{fill:#01293d;}</style></defs><g id="Layer_2-2"><g><path class="cls-1" d="M120.94,449.02l-1.44-.77c0-.42-.03-.84-.04-1.26l.18-.3-.17,.31c-2.57-1.31-4.47-4.06-7.83-3.71-1.09-.25-1.92-.87-2.57-1.76-.22-2.25-1.27-3.2-3.54-2.29l-.17-.13c-.24-1.03-.95-1.42-1.93-1.44l.03,.02c-1.09-3.09-2.36-6.16-5.61-7.5-2.52-1.04-4.1-2.64-4.67-5.26-.2-.93-.27-2.04-1.5-1.95-1.18,.09-1.24,1.21-1.29,2.15-.05,1.09-.06,2.18-.08,3.26-1.22-.33-2.04-1.18-2.72-2.18-.15-2.01,.04-4.43-3.25-2.74-.32,.03-.5-.12-.53-.44,1.11-3-.22-3.3-2.65-2.38-1.3-.55-2.32-1.42-3.06-2.62-.17-3.65-1.94-5.66-5.74-5.59h.01c0-1.18,.38-2.55-.08-3.52-.94-1.99-2.16-4.42-4.73-1.36l-.69-.75c-1.62-3.64-2.37-8.04-7.55-8.53l.02,.02c.05-1.1,.49-2.01,.99-3.01,1.57-3.17-2.21-2.54-3.23-3.98-1.43-2.04-2.13,0-2.71,1.23l-.64-.94c.21-4.07-.58-7.39-5.68-7.39v.02c2.05-6.25,1.53-6.98-5.16-7.34-.3-.04-.43-.2-.4-.5-.06-1.5,.26-3.25-2.08-3.33l.03,.05c.47-2.98,.12-5.45-3.63-5.8-6.76-6.77-9.99-15.65-13.94-24C3.62,302.51-3.18,259.45,1.35,214.74c3.5-34.57,13.54-67.35,31.9-97,14.83-23.94,32.18-46.13,54.6-63.59,17.62-13.72,36.27-26.06,57.07-34.66C177.95,5.84,212.2-1.55,248.14,.28c22.69,1.15,43.7,8.16,64.19,17.55,17.07,7.83,32.87,17.94,49.61,26.33,14.24,7.14,28.9,11.89,45.08,7.99,9.32-2.24,16.45-7.11,21.93-15.42,5.98-9.07,5.89-19.04,6.73-28.96,.28-3.31,.84-4.76,4.46-4.34,3.54,.42,7.98-.94,10.48,.76,2.41,1.64,1.44,6.42,1.74,9.81,3.08,35.18,.97,69.97-14.88,102.06-16,32.39-42.35,52.46-78.77,58.07-22.84,3.51-45.22,2.78-66.46-7.56-9.59-4.67-18.27-10.75-26.73-17.23-19.12-14.68-33.93-33.42-49.48-51.52-12.17-14.17-24.34-28.42-38.83-40.35-11.03-9.08-23.26-15.46-38.24-12.85-17.4,3.04-29.05,13.03-34.54,29.86-5.51,16.92-4.71,34.24-2.3,51.47,6.04,43.2,21.54,83.35,42.2,121.35,16.96,31.18,35.33,61.75,58.35,89,16.79,19.88,33.87,39.78,55.03,55.24,16.86,12.32,34.36,24,55.37,28.53,19.33,4.17,38.29,3.56,57.24-2.93,23.35-8,40.81-23.45,56.8-41.42,8.78-9.87,15.94-20.69,22.28-32.13,1.41-2.54,2.51-2.99,4.9-1.33,3.29,2.28,9.01,2.96,9.8,6.3,.69,2.89-2.88,6.89-4.81,10.27-7.76,13.6-16.17,26.84-27.17,38.02-16.86,17.14-34.59,33.33-55.5,45.64-35.5,20.91-73.49,34.03-114.71,37.59-37.22,3.21-73.25-1.41-108.08-15.1-10.89-4.28-21.77-8.57-31.55-15.14-.44-.27-.89-.54-1.33-.81h0Zm3.93-1.34c-.02-.86-.31-1.39-1.01-1.39-.34,0-.9,.33-.96,.6-.17,.71,.44,1.06,1.02,1.16,.31,.05,.67-.25,.95-.37Zm-11.52-7.32c-.2-.15-.39-.33-.61-.43-.05-.03-.32,.2-.31,.24,.09,.24,.23,.45,.35,.68,.19-.16,.37-.32,.56-.49h0Z"/><path class="cls-1" d="M90.31,428.4c.02-1.09,.03-2.18,.08-3.26,.04-.94,.1-2.06,1.29-2.15,1.23-.1,1.3,1.02,1.5,1.95,.57,2.61,2.15,4.22,4.67,5.26,3.25,1.34,4.52,4.41,5.61,7.5-4.93-2.33-8.6-6.42-13.15-9.28v-.02Z"/><path class="cls-1" d="M54.39,392.52c.58-1.23,1.28-3.27,2.71-1.23,1.01,1.44,4.8,.82,3.23,3.98-.5,1-.94,1.91-.99,3.01-1.99-1.63-3.68-3.52-4.95-5.77h0Z"/><path class="cls-1" d="M42.9,376.87c6.7,.36,7.21,1.09,5.17,7.34-2.07-2.2-3.83-4.63-5.17-7.34Z"/><path class="cls-1" d="M48.06,384.19c5.11,0,5.89,3.32,5.68,7.39-2.27-2.18-4.2-4.61-5.68-7.39Z"/><path class="cls-1" d="M59.32,398.27c5.19,.49,5.94,4.89,7.55,8.53-2.82-2.58-5.4-5.37-7.55-8.53Z"/><path class="cls-1" d="M67.57,407.55c2.57-3.06,3.79-.63,4.73,1.36,.46,.97,.08,2.35,.08,3.54-1.97-1.27-3.49-2.99-4.81-4.9Z"/><path class="cls-1" d="M119.47,446.98c0,.42,.03,.84,.04,1.26-2.93-1.16-5.54-2.84-7.86-4.96,3.36-.35,5.26,2.39,7.83,3.71h0Z"/><path class="cls-1" d="M36.82,367.29c3.75,.35,4.1,2.82,3.63,5.8-1.7-1.63-2.79-3.63-3.63-5.8Z"/><path class="cls-1" d="M72.36,412.44c3.8-.07,5.58,1.94,5.74,5.59-2.24-1.53-4.09-3.46-5.74-5.59Z"/><path class="cls-1" d="M81.16,420.65c2.43-.92,3.75-.62,2.65,2.38l-2.65-2.38Z"/><path class="cls-1" d="M84.34,423.47c3.29-1.69,3.1,.73,3.25,2.74l-3.25-2.74Z"/><path class="cls-1" d="M105.53,439.23c2.27-.92,3.32,.04,3.54,2.29-1.18-.76-2.36-1.53-3.54-2.29Z"/><path class="cls-1" d="M40.41,373.04c2.34,.08,2.02,1.83,2.08,3.33-1.08-.87-1.8-1.96-2.08-3.33Z"/><path class="cls-1" d="M103.43,437.66c.98,.02,1.69,.41,1.93,1.44-.64-.48-1.29-.96-1.93-1.44Z"/><path class="cls-1" d="M120.94,449.02c.44,.27,.89,.54,1.33,.81l-1.33-.81Z"/><path class="cls-1" d="M124.87,447.69c-.28,.12-.64,.42-.95,.37-.58-.1-1.19-.45-1.02-1.16,.06-.27,.63-.59,.96-.6,.7,0,.99,.52,1.01,1.39Z"/><path class="cls-1" d="M113.35,440.37c-.19,.16-.37,.32-.56,.48-.12-.22-.27-.44-.35-.68-.02-.04,.25-.27,.31-.24,.22,.11,.41,.28,.61,.44h0Z"/><path class="cls-1" d="M119.47,446.99l.17-.31-.18,.3h0Z"/></g></g></svg>