<?xml version="1.0" encoding="UTF-8"?><svg id="Layer_2" xmlns="http://www.w3.org/2000/svg" viewBox="0 0 541 532"><defs><style>.cls-1{fill:#01293d;}.cls-2{fill:#fcfdfd;}.cls-3{fill:#edf3f5;}</style></defs><g id="Layer_2-2"><g><path class="cls-1" d="M540.93,1.18c0,175.45,0,350.89,.07,526.34,0,3.24-.28,4.48-4.14,4.48-177.57-.12-355.15-.12-532.72,0C.28,532,0,530.76,0,527.52,.08,352.07,.07,176.62,.07,1.18H540.93ZM133.96,446.49l3.25,2.74c.69,1,1.5,1.85,2.72,2.18,4.55,2.86,8.23,6.95,13.15,9.28l-.03-.02c.64,.48,1.29,.96,1.93,1.44l.17,.13,3.54,2.29c.64,.9,1.48,1.51,2.57,1.76,2.32,2.13,4.93,3.8,7.86,4.96,.48,.26,.96,.51,1.44,.77l1.33,.81c9.79,6.57,20.66,10.86,31.55,15.14,34.82,13.68,70.86,18.31,108.08,15.1,41.22-3.56,79.21-16.67,114.71-37.59,20.91-12.32,38.64-28.5,55.5-45.64,11-11.18,19.41-24.42,27.17-38.02,1.93-3.38,5.5-7.39,4.81-10.27-.8-3.35-6.51-4.02-9.8-6.3-2.39-1.66-3.49-1.21-4.9,1.33-6.35,11.44-13.5,22.25-22.28,32.13-15.99,17.98-33.44,33.43-56.8,41.42-18.95,6.49-37.91,7.1-57.24,2.93-21.01-4.53-38.52-16.21-55.37-28.53-21.16-15.46-38.24-35.36-55.03-55.24-23.02-27.25-41.39-57.81-58.35-89-20.66-38-36.17-78.15-42.2-121.35-2.41-17.23-3.21-34.55,2.3-51.47,5.48-16.83,17.13-26.82,34.54-29.86,14.98-2.62,27.22,3.76,38.24,12.85,14.49,11.93,26.66,26.19,38.83,40.35,15.55,18.1,30.35,36.84,49.48,51.52,8.45,6.49,17.14,12.57,26.73,17.23,21.24,10.34,43.62,11.07,66.46,7.56,36.42-5.6,62.77-25.67,78.77-58.07,15.85-32.09,17.95-66.88,14.88-102.06-.3-3.38,.67-8.17-1.74-9.81-2.5-1.7-6.94-.34-10.48-.76-3.62-.43-4.18,1.03-4.46,4.34-.83,9.92-.75,19.89-6.73,28.96-5.48,8.31-12.6,13.18-21.93,15.42-16.18,3.9-30.84-.85-45.08-7.99-16.74-8.39-32.53-18.51-49.61-26.33-20.49-9.39-41.5-16.4-64.19-17.55-35.94-1.83-70.19,5.56-103.22,19.21-20.8,8.6-39.45,20.93-57.07,34.66-22.42,17.46-39.77,39.65-54.6,63.59-18.36,29.65-28.4,62.43-31.9,97-4.53,44.71,2.27,87.77,21.54,128.57,3.95,8.36,7.18,17.23,13.94,24,.84,2.16,1.93,4.17,3.63,5.8l-.03-.05c.28,1.37,1,2.46,2.08,3.33-.03,.3,.11,.46,.4,.5,1.35,2.71,3.1,5.14,5.17,7.34v-.02c1.47,2.78,3.41,5.21,5.67,7.39l.64,.94c1.27,2.25,2.96,4.14,4.95,5.77l-.02-.02c2.15,3.16,4.73,5.96,7.55,8.53l.69,.75c1.32,1.91,2.84,3.63,4.81,4.9h-.01c1.65,2.12,3.51,4.05,5.74,5.58,.73,1.2,1.76,2.07,3.06,2.62l2.65,2.38c.03,.32,.21,.47,.53,.44Z"/><path class="cls-2" d="M540.93,1.18H.07C.28,.89-.4,.2,.54,.23c1.25,.04,2.5,0,3.76,0,177.47,0,354.94,0,532.41,.06,1.37,0,3.18-1.08,4.23,.88Z"/><path class="cls-2" d="M170.56,472.04l-1.44-.77c-.01-.42-.03-.84-.04-1.26l.18-.3-.17,.31c-2.57-1.31-4.47-4.06-7.83-3.71-1.09-.25-1.92-.87-2.57-1.76-.22-2.25-1.27-3.2-3.54-2.29l-.17-.13c-.24-1.03-.95-1.42-1.93-1.44l.03,.02c-1.09-3.09-2.36-6.16-5.61-7.5-2.52-1.04-4.1-2.64-4.67-5.26-.2-.93-.27-2.04-1.5-1.95-1.18,.09-1.24,1.21-1.29,2.15-.05,1.09-.06,2.18-.08,3.26-1.22-.33-2.04-1.18-2.72-2.18-.15-2.01,.04-4.43-3.25-2.74-.32,.03-.5-.12-.53-.44,1.11-3-.22-3.3-2.65-2.38-1.3-.55-2.32-1.42-3.06-2.62-.17-3.65-1.94-5.66-5.74-5.59h.01c0-1.18,.38-2.55-.08-3.52-.94-1.99-2.16-4.42-4.73-1.36l-.69-.75c-1.62-3.64-2.37-8.04-7.55-8.53l.02,.02c.05-1.1,.49-2.01,.99-3.01,1.57-3.17-2.21-2.54-3.23-3.98-1.43-2.04-2.13,0-2.71,1.23l-.64-.94c.21-4.07-.58-7.39-5.68-7.39v.02c2.05-6.25,1.53-6.98-5.16-7.34-.3-.04-.43-.2-.4-.5-.06-1.5,.26-3.25-2.08-3.33l.03,.05c.47-2.98,.12-5.45-3.63-5.8-6.76-6.77-9.99-15.65-13.94-24-19.27-40.8-26.07-83.86-21.54-128.57,3.5-34.57,13.54-67.35,31.9-97,14.83-23.94,32.18-46.13,54.6-63.59,17.62-13.72,36.27-26.06,57.07-34.66,33.03-13.65,67.28-21.04,103.22-19.21,22.69,1.15,43.7,8.16,64.19,17.55,17.07,7.83,32.87,17.94,49.61,26.33,14.24,7.14,28.9,11.89,45.08,7.99,9.32-2.24,16.45-7.11,21.93-15.42,5.98-9.07,5.89-19.04,6.73-28.96,.28-3.31,.84-4.76,4.46-4.34,3.54,.42,7.98-.94,10.48,.76,2.41,1.64,1.44,6.42,1.74,9.81,3.08,35.18,.97,69.97-14.88,102.06-16,32.39-42.35,52.46-78.77,58.07-22.84,3.51-45.22,2.78-66.46-7.56-9.59-4.67-18.27-10.75-26.73-17.23-19.12-14.68-33.93-33.42-49.48-51.52-12.17-14.17-24.34-28.42-38.83-40.35-11.03-9.08-23.26-15.46-38.24-12.85-17.4,3.04-29.05,13.03-34.54,29.86-5.51,16.92-4.71,34.24-2.3,51.47,6.04,43.2,21.54,83.35,42.2,121.35,16.96,31.18,35.33,61.75,58.35,89,16.79,19.88,33.87,39.78,55.03,55.24,16.86,12.32,34.36,24,55.37,28.53,19.33,4.17,38.29,3.56,57.24-2.93,23.35-8,40.81-23.45,56.8-41.42,8.78-9.87,15.94-20.69,22.28-32.13,1.41-2.54,2.51-2.99,4.9-1.33,3.29,2.28,9.01,2.96,9.8,6.3,.69,2.89-2.88,6.89-4.81,10.27-7.76,13.6-16.17,26.84-27.17,38.02-16.86,17.14-34.59,33.33-55.5,45.64-35.5,20.91-73.49,34.03-114.71,37.59-37.22,3.21-73.25-1.41-108.08-15.1-10.89-4.28-21.77-8.57-31.55-15.14-.44-.27-.89-.54-1.33-.81Zm3.93-1.33c-.02-.86-.31-1.39-1.01-1.39-.34,0-.9,.33-.96,.6-.17,.71,.44,1.06,1.02,1.16,.31,.05,.67-.25,.95-.37Zm-11.52-7.32c-.2-.15-.39-.33-.61-.43-.05-.03-.32,.2-.31,.24,.09,.24,.23,.45,.35,.68,.19-.16,.37-.32,.56-.49Z"/><path class="cls-3" d="M139.93,451.42c.02-1.09,.03-2.18,.08-3.26,.04-.94,.1-2.06,1.29-2.15,1.23-.1,1.3,1.02,1.5,1.95,.57,2.61,2.15,4.22,4.67,5.26,3.25,1.34,4.52,4.41,5.61,7.5-4.93-2.33-8.6-6.42-13.15-9.28Z"/><path class="cls-3" d="M104.01,415.54c.58-1.23,1.28-3.27,2.71-1.23,1.01,1.44,4.8,.82,3.23,3.98-.5,1-.94,1.91-.99,3.01-1.99-1.63-3.68-3.52-4.95-5.77Z"/><path class="cls-3" d="M92.52,399.89c6.7,.36,7.21,1.09,5.17,7.34-2.07-2.2-3.83-4.63-5.17-7.34Z"/><path class="cls-3" d="M97.68,407.21c5.11,0,5.89,3.32,5.68,7.39-2.27-2.18-4.2-4.61-5.68-7.39Z"/><path class="cls-3" d="M108.94,421.29c5.19,.49,5.94,4.89,7.55,8.53-2.82-2.58-5.4-5.37-7.55-8.53Z"/><path class="cls-3" d="M117.19,430.57c2.57-3.06,3.79-.63,4.73,1.36,.46,.97,.08,2.35,.08,3.54-1.97-1.27-3.49-2.99-4.81-4.9Z"/><path class="cls-3" d="M169.09,470c.01,.42,.03,.84,.04,1.26-2.93-1.16-5.54-2.84-7.86-4.96,3.36-.35,5.26,2.39,7.83,3.71h0Z"/><path class="cls-3" d="M86.44,390.31c3.75,.35,4.1,2.82,3.63,5.8-1.7-1.63-2.79-3.63-3.63-5.8Z"/><path class="cls-3" d="M121.98,435.46c3.8-.07,5.58,1.94,5.74,5.59-2.24-1.53-4.09-3.46-5.74-5.59Z"/><path class="cls-3" d="M130.78,443.67c2.43-.92,3.75-.62,2.65,2.38l-2.65-2.38Z"/><path class="cls-3" d="M133.96,446.49c3.29-1.69,3.1,.73,3.25,2.74l-3.25-2.74Z"/><path class="cls-3" d="M155.15,462.25c2.27-.92,3.32,.04,3.54,2.29-1.18-.76-2.36-1.53-3.54-2.29Z"/><path class="cls-3" d="M90.03,396.06c2.34,.08,2.02,1.83,2.08,3.33-1.08-.87-1.8-1.96-2.08-3.33Z"/><path class="cls-3" d="M153.05,460.68c.98,.02,1.69,.41,1.93,1.44-.64-.48-1.29-.96-1.93-1.44Z"/><path class="cls-3" d="M170.56,472.04c.44,.27,.89,.54,1.33,.81l-1.33-.81Z"/><path class="cls-3" d="M174.49,470.71c-.28,.12-.64,.42-.95,.37-.58-.1-1.19-.45-1.02-1.16,.06-.27,.63-.59,.96-.6,.7,0,.99,.52,1.01,1.39Z"/><path class="cls-3" d="M162.97,463.39c-.19,.16-.37,.32-.56,.48-.12-.22-.27-.44-.35-.68-.02-.04,.25-.27,.31-.24,.22,.11,.41,.28,.61,.44Z"/><path class="cls-3" d="M169.09,470.01l.17-.31-.18,.3h0Z"/></g></g></svg>