<?xml version="1.0" encoding="UTF-8"?><svg id="Layer_2" xmlns="http://www.w3.org/2000/svg" viewBox="0 0 551.45 57.44"><defs><style>.cls-1{fill:#00293d;}</style></defs><g id="Layer_2-2"><g id="Layer_1-2"><g><path class="cls-1" d="M400.88,42.33c3.82-9.05,7.43-17.61,11.04-26.16,1.74-4.13,3.53-8.24,5.2-12.41,.53-1.32,1.13-1.95,2.69-1.91,4.53,.13,9.07,.04,13.71,.04-.35,.89-1.01,.72-1.52,.86-2.9,.82-3.6,1.73-3.6,4.79V48.03c0,5.21,.32,5.63,5.94,7.09h-22.34c1.35-.39,2.19-.59,3.01-.87,1.92-.66,2.95-1.87,2.94-4.07-.05-14.33-.03-28.65-.47-43.15-6.88,16.24-13.77,32.48-20.8,49.08-7.2-14.37-14.25-28.43-21.64-43.17-.06,1.38-.12,2.07-.12,2.75,0,9.08,.02,18.16,0,27.24,0,2.1,.21,4.17,.67,6.2,.6,2.67,1.71,5.03,4.67,6.01h-12.22c3.63-.84,4.59-3.58,4.97-6.81,.78-6.56,.24-13.15,.36-19.72,.09-5-.24-10.01,.09-14.99,.29-4.29-1.58-7.31-4.41-10.08-.41-.4-.85-.76-1.82-1.62,4.69,0,8.77-.05,12.85,.03,.99,.02,1.08,1.15,1.44,1.86,6,11.95,11.99,23.91,17.99,35.87,.37,.74,.76,1.46,1.37,2.63v.02Z"/><path class="cls-1" d="M75.81,55.19h-21.02l-.05-.24c.83-.24,1.68-.44,2.49-.74,1.81-.66,2.8-1.82,2.79-3.92-.05-14.41-.06-28.82,.01-43.23,.01-2.35-1.15-3.5-3.14-4.18-.66-.22-1.33-.41-1.91-.9h20.7c-.56,.72-1.25,.66-1.84,.83-2.23,.66-3.45,1.94-3.4,4.5,.12,6.33,.07,12.66,.02,18.99-.01,1.38,.12,2.05,1.82,2.03,7.49-.11,14.99-.1,22.49,0,1.59,.02,1.93-.49,1.91-1.97-.08-6.08-.03-12.16-.04-18.24,0-4-.3-4.37-4.28-5.49-.3-.09-.58-.25-1.36-.58h21.24s0,.25-.09,.28c-3.37,1.2-5.05,3.62-5.06,7.25V47.81c0,5.49,.14,5.68,5.87,7.34h-21.51s-.03-.28,0-.29c3.45-.93,5.18-3.2,5.19-6.79,0-5.5-.05-11,.04-16.49,.03-1.56-.43-1.96-1.96-1.94-7.5,.08-14.99,.07-22.49,0-1.45-.01-1.79,.45-1.78,1.82,.07,5.58,.03,11.16,.03,16.74,0,5.02,.43,5.57,5.34,6.99h-.01Z"/><path class="cls-1" d="M318.47,1.9h8.09c10.33,0,20.65,.03,30.98-.03,1.58-.01,2.35,.28,2.64,2.02,.62,3.75,1.52,7.44,2.46,11.9-2.12-2.72-3.72-4.9-5.44-6.98-3.05-3.68-7.04-5.45-11.8-5.52-3.25-.05-6.5,.01-9.74-.1-1.34-.04-1.68,.43-1.67,1.7,.05,7.08,.02,14.16,.02,21.24,0,.92-.16,1.86,1.3,1.83,3.66-.06,7.34,.13,10.98-.38,4.47-.63,7.38-3.17,8.93-7.45v16.76s-.22,.02-.23-.02c-1.92-5.75-6.46-7.43-11.91-7.57-2.91-.07-6.7-1.05-8.48,.38-1.83,1.47-.49,5.43-.55,8.29-.09,4.75-.02,9.49-.03,14.24,0,.94-.1,1.85,1.32,1.84,4.33-.04,8.68,.27,12.97-.41,5.33-.84,9.19-4.06,12.33-8.24,1.43-1.91,2.75-3.9,4.53-5.73-1.43,5.7-2.86,11.4-4.36,17.39-1.81-1.77-3.75-1.83-5.79-1.82-11.49,.05-22.99,.03-34.48,.03h-2.52c.47-.93,1.19-.94,1.74-1.21,2.62-1.29,3.91-3.15,3.88-6.3-.14-13.16-.06-26.32-.06-39.48,0-4.22-.21-4.48-4.33-5.69-.28-.08-.55-.24-.82-.36l.06-.35-.02,.02Z"/><path class="cls-1" d="M152.45,20.27v16.63c-1.79-5.4-5.99-7.19-11.1-7.52-2.82-.18-5.66-.03-8.49-.14-1.27-.05-1.5,.46-1.49,1.6,.04,7.24,.02,14.49,.02,21.73,0,.75-.11,1.53,1.07,1.51,4.57-.09,9.16,.32,13.7-.54,5.24-.99,8.88-4.3,11.96-8.37,1.39-1.84,2.66-3.78,4.33-5.57-1.04,4.25-2.09,8.5-3.13,12.75-.14,.56-.28,1.13-.42,1.69-.42,1.66-.62,3.69-3.03,1.55-.67-.59-1.61-.27-2.42-.27-12.64-.02-25.29-.01-37.95-.01,.05-.26,.05-.49,.11-.51,4.2-1.51,5.52-4.42,5.41-8.89-.29-12.07-.1-24.15-.1-36.22,0-3.74-1.92-6.28-5.75-7.61,1.1-.08,1.66-.15,2.23-.15,12.49,0,24.98,.02,37.47-.05,1.63,0,2.33,.42,2.62,2.08,.63,3.68,1.48,7.32,2.31,11.28-1.56-1-2.2-2.42-3.02-3.64-3.95-5.89-9.35-8.76-16.48-8.38-2.49,.13-5,.07-7.49,0-1.07-.03-1.44,.29-1.44,1.41,.04,7.33,.03,14.66,0,21.98,0,.87,.15,1.4,1.21,1.38,3.66-.05,7.34,.16,10.97-.38,4.38-.64,7.39-3.05,8.89-7.33h0Z"/><path class="cls-1" d="M269.95,10.03c0,12.25-.03,23.9,.04,35.56,0,1.55,.45,3.12,.84,4.65,.59,2.3,1.89,4.03,4.33,4.86h-12.75c4.7-.96,5.43-4.28,5.6-7.84,.62-12.73,.12-25.47,.29-38.21,.01-.94-.47-1.55-1.02-2.18-1.54-1.74-3.27-3.27-5.73-4.97,5.14,0,9.66,.02,14.18-.01,1.17,0,1.49,.93,2.04,1.61,9.62,11.92,19.72,23.43,29.6,35.12,.08,.1,.26,.12,.39,.18,.1-.11,.3-.21,.3-.31,.09-9.24,.38-18.48-.19-27.71-.22-3.52-.93-7.04-5.63-8.68h13c-4.76,1.23-5.32,4.85-5.42,8.54-.37,14.32-.35,28.64,.04,42.95,.03,1.08,0,2.16,0,3.85-13.39-15.9-26.49-31.46-39.92-47.41h.01Z"/><path class="cls-1" d="M232.74,46.94c-1.74,3.04-4.39,5.08-7.43,6.61-10.6,5.34-26.18,2.9-34.69-5.38-12.23-11.91-10.56-32,3.72-41.33,9.56-6.24,20.01-7.76,31.01-4.07,.86,.29,1.7,.68,2.5,1.1,2.16,1.13,4.68,2.33,5.53,4.47,.94,2.37-1.95,3.79-3.14,5.6-2.13,3.25-4.6,6.28-7.09,9.34,.92-3.67,1.4-7.34,.4-11-1.42-5.19-4.78-8.56-10.13-9.46-6.19-1.03-11.71,.48-15.41,5.85-4.86,7.07-4.95,15.03-3.17,23.03,1.68,7.56,5.36,13.96,12.3,17.98,7.74,4.48,17.97,3.36,24.62-2.59,.26-.23,.45-.5,.97-.17v.02Z"/><path class="cls-1" d="M450.31,55.18h-13.04c3.77-1.48,5.42-4.7,6.88-8.05,5.54-12.69,11.64-25.19,16.31-38.2,2.03-5.66,6.74-5.99,10.27-8.68,.92-.7,.97,.21,1.21,.84,6.1,15.51,12.2,31.03,18.36,46.52,1.22,3.06,2.35,6.31,6.83,7.49h-23.57s.1-.22,.21-.24c5.57-.86,6.85-2.92,5.06-8.2-.98-2.89-3.04-4.34-6.17-4.34-7.49,0-14.98,.07-22.47-.05-1.73-.03-2.6,.52-3.05,2.08-.21,.71-.57,1.38-.84,2.08-1.99,5.13-1.18,6.83,4.03,8.76h-.02Zm26.23-14.29c-4.51-11.24-8.89-22.16-13.29-33.15-.24,.27-.47,.43-.56,.64-4.49,10.35-8.95,20.72-13.48,31.06-.68,1.55,.15,1.45,1.17,1.45h26.16Z"/><path class="cls-1" d="M546.51,17.07v-1.35c.05-7.79-3.99-12.08-11.75-12.47-2.94-.15-4.41,1.19-4.41,4.04V48.01c0,5.15,.72,5.98,5.81,6.77,.29,.04,.58,.06,.83,.41h-24.04c.1-.12,.18-.33,.28-.34,6-.79,6.63-1.51,6.63-7.58,0-13.9-.04-27.81,.05-41.71,.01-2.02-.54-2.4-2.48-2.33-7.96,.3-13.14,4.43-16.45,11.38-.41,.85-.6,1.84-1.65,2.74,.79-4.97,1.53-9.62,2.25-14.26,.17-1.1,.87-1.19,1.79-1.19,15.57,.02,31.14,.02,46.71,.02,.76,0,1.66-.11,1.28,1.13-1.45,4.71-2.94,9.42-4.41,14.13l-.46-.09,.02-.02Z"/><path class="cls-1" d="M47.07,17.07c0-.29-.01-.58,0-.87,.5-10.07-6.24-13.43-15.01-13.06-1.8,.08-1.11,1.37-1.11,2.17-.04,12.66-.03,25.31-.03,37.97v5.5c0,4.05,.82,5.04,4.86,5.86,.62,.12,1.24,.2,1.82,.56H13.54c.09-.13,.17-.33,.26-.34,6.07-.84,6.64-1.48,6.64-7.57,0-13.91-.04-27.81,.05-41.72,.01-2-.52-2.42-2.46-2.35C10.21,3.53,4.98,7.49,1.69,14.37c-.42,.89-.85,1.78-1.69,2.6,.55-3.58,1.06-7.16,1.67-10.73C2.41,1.89,2.45,1.9,6.99,1.9H49.45c2.85,0,2.86,0,1.98,2.83-1.29,4.15-2.6,8.3-3.91,12.44l-.46-.1h0Z"/><path class="cls-1" d="M238.12,1.93h20.71c-.06,.16-.08,.38-.16,.41-3.3,1.15-4.95,3.5-4.96,7.06V47.84c0,5.44,.17,5.69,5.82,7.32h-22.28c1.24-.36,1.9-.57,2.57-.73,2.45-.61,3.52-2.09,3.5-4.67-.06-14.06-.1-28.13,.02-42.19,.03-3.82-2.47-4.62-5.21-5.63h-.01Z"/></g></g></g></svg>