<?xml version="1.0" encoding="UTF-8"?><svg id="Layer_2" xmlns="http://www.w3.org/2000/svg" viewBox="0 0 642 642"><defs><style>.cls-1{fill:#f6f8f9;}.cls-2{fill:#f8fafa;}.cls-3{fill:#00293d;}</style></defs><g id="Layer_1-2"><g><path class="cls-3" d="M.05,321C.05,214.77,.05,108.53,0,2.3,0,.42,.42,0,2.3,0,214.77,.05,427.23,.05,639.7,0c1.87,0,2.3,.42,2.3,2.3-.05,212.47-.05,424.94,0,637.41,0,1.87-.42,2.3-2.3,2.3-212.47-.05-424.94-.05-637.41,0-1.87,0-2.3-.42-2.3-2.3,.05-106.23,.05-212.47,.05-318.7Zm445.4,17.04c-.61-1.16-1-1.89-1.37-2.63-6-11.96-11.99-23.92-17.99-35.87-.36-.71-.45-1.84-1.44-1.86-4.08-.08-8.16-.03-12.85-.03,.97,.85,1.41,1.22,1.82,1.62,2.82,2.76,4.7,5.79,4.41,10.08-.34,4.98,0,9.99-.09,14.99-.12,6.57,.41,13.16-.36,19.72-.38,3.23-1.33,5.97-4.97,6.81h12.22c-2.96-.98-4.06-3.35-4.67-6.01-.46-2.03-.68-4.1-.67-6.2,.02-9.08,0-18.16,0-27.24,0-.68,.06-1.37,.12-2.75,7.39,14.74,14.44,28.8,21.64,43.17,7.04-16.6,13.92-32.84,20.8-49.08,.44,14.5,.42,28.83,.47,43.15,0,2.2-1.02,3.41-2.94,4.07-.82,.28-1.66,.48-3.01,.87h22.34c-5.61-1.46-5.94-1.88-5.94-7.09,0-13.5,0-26.99,0-40.49,0-3.06,.7-3.97,3.6-4.79,.51-.14,1.18,.03,1.52-.86-4.64,0-9.18,.08-13.71-.04-1.56-.04-2.16,.59-2.69,1.91-1.66,4.16-3.46,8.27-5.2,12.41-3.61,8.55-7.22,17.11-11.04,26.16Zm-325.07,12.86c-4.91-1.42-5.34-1.97-5.34-6.99,0-5.58,.04-11.16-.03-16.74-.02-1.38,.33-1.84,1.78-1.82,7.5,.07,14.99,.08,22.49,0,1.53-.02,1.99,.39,1.96,1.94-.1,5.5-.04,10.99-.04,16.49q0,5.39-5.19,6.79s0,.25,0,.29h21.51c-5.72-1.66-5.86-1.85-5.87-7.34,0-12.74,0-25.49,0-38.23q0-5.45,5.06-7.25c.08-.03,.09-.26,.09-.28h-21.24c.78,.34,1.06,.5,1.36,.58,3.98,1.12,4.27,1.49,4.28,5.49,0,6.08-.04,12.16,.04,18.24,.02,1.48-.31,1.99-1.91,1.97-7.5-.09-14.99-.1-22.49,0-1.7,.02-1.84-.65-1.82-2.03,.06-6.33,.11-12.66-.02-18.99-.05-2.56,1.17-3.84,3.4-4.5,.59-.17,1.28-.11,1.84-.83h-20.7c.59,.49,1.25,.68,1.91,.9,1.99,.68,3.15,1.83,3.14,4.18-.07,14.41-.06,28.82-.01,43.23,0,2.1-.98,3.26-2.79,3.92-.81,.3-1.66,.49-2.49,.74l.05,.24h21.02Zm242.66-53.29l-.06,.35c.27,.12,.53,.28,.82,.36,4.13,1.21,4.33,1.47,4.33,5.69,0,13.16-.08,26.32,.06,39.48,.03,3.14-1.26,5-3.88,6.3-.55,.27-1.27,.28-1.74,1.21,.94,0,1.73,0,2.52,0,11.49,0,22.99,.03,34.48-.03,2.04,0,3.98,.05,5.79,1.82,1.5-5.99,2.93-11.69,4.36-17.39-1.78,1.83-3.09,3.82-4.53,5.73-3.14,4.18-7,7.4-12.33,8.24-4.29,.68-8.64,.37-12.97,.41-1.42,.01-1.32-.9-1.32-1.84,0-4.75-.06-9.5,.03-14.24,.06-2.86-1.28-6.82,.55-8.29,1.79-1.43,5.58-.45,8.48-.38,5.45,.14,9.99,1.81,11.91,7.57,.01,.04,.22,.02,.23,.02v-16.76c-1.55,4.28-4.46,6.82-8.93,7.45-3.64,.51-7.31,.32-10.98,.38-1.46,.02-1.3-.91-1.3-1.83,0-7.08,.03-14.16-.02-21.24,0-1.27,.33-1.75,1.67-1.7,3.24,.11,6.49,.05,9.74,.1,4.75,.07,8.75,1.84,11.8,5.52,1.72,2.08,3.32,4.25,5.44,6.98-.94-4.46-1.84-8.15-2.46-11.9-.29-1.75-1.06-2.03-2.64-2.02-10.33,.07-20.65,.03-30.98,.03-2.7,0-5.39,0-8.09,0Zm-166.02,18.37c-1.5,4.28-4.51,6.69-8.89,7.33-3.63,.53-7.31,.32-10.97,.38-1.06,.02-1.21-.51-1.21-1.38,.02-7.33,.03-14.66-.01-21.98,0-1.11,.37-1.43,1.44-1.41,2.5,.06,5,.13,7.49,0,7.13-.38,12.54,2.49,16.48,8.38,.81,1.21,1.46,2.64,3.02,3.64-.82-3.95-1.68-7.6-2.31-11.28-.29-1.66-.99-2.09-2.62-2.08-12.49,.07-24.98,.04-37.47,.05-.57,0-1.13,.07-2.23,.15q5.75,2,5.75,7.61c0,12.07-.19,24.15,.1,36.22,.11,4.47-1.21,7.38-5.41,8.89-.07,.02-.06,.26-.11,.51,12.67,0,25.31,0,37.95,.01,.81,0,1.75-.32,2.42,.27,2.41,2.14,2.61,.12,3.03-1.55,.14-.56,.28-1.13,.42-1.69,1.04-4.25,2.09-8.5,3.13-12.75-1.68,1.79-2.94,3.73-4.33,5.57-3.07,4.07-6.72,7.39-11.96,8.37-4.54,.86-9.13,.45-13.7,.54-1.18,.02-1.07-.75-1.07-1.51,0-7.24,.02-14.49-.02-21.73,0-1.14,.22-1.65,1.49-1.6,2.83,.11,5.67-.05,8.49,.14,5.11,.33,9.32,2.12,11.1,7.52v-16.63Zm117.5-10.24c13.43,15.95,26.53,31.51,39.92,47.41,0-1.68,.03-2.77,0-3.85-.39-14.32-.42-28.64-.04-42.95,.1-3.69,.66-7.31,5.42-8.54h-13c4.7,1.64,5.41,5.16,5.63,8.68,.57,9.23,.28,18.47,.19,27.71,0,.11-.2,.21-.3,.31-.13-.06-.31-.08-.39-.18-9.89-11.69-19.99-23.2-29.6-35.12-.55-.68-.87-1.62-2.04-1.61-4.52,.03-9.04,.01-14.18,.01,2.46,1.7,4.19,3.22,5.73,4.97,.56,.63,1.03,1.24,1.02,2.18-.16,12.74,.34,25.48-.29,38.21-.17,3.56-.9,6.88-5.6,7.84h12.75c-2.44-.83-3.74-2.56-4.33-4.86-.39-1.52-.83-3.09-.84-4.65-.07-11.65-.04-23.31-.04-35.56Zm-37.21,36.92c-.52-.32-.71-.06-.97,.17-6.65,5.95-16.87,7.06-24.62,2.59-6.94-4.01-10.62-10.41-12.3-17.98-1.78-8.01-1.69-15.96,3.17-23.03,3.69-5.37,9.22-6.88,15.41-5.85,5.35,.89,8.71,4.27,10.13,9.46,1,3.65,.52,7.32-.4,11,2.49-3.06,4.96-6.09,7.09-9.34,1.19-1.81,4.08-3.23,3.14-5.6-.85-2.14-3.37-3.34-5.53-4.47-.81-.42-1.64-.81-2.5-1.1-10.99-3.7-21.45-2.17-31.01,4.07-14.28,9.33-15.95,29.42-3.72,41.33,8.5,8.28,24.09,10.72,34.69,5.38,3.04-1.53,5.69-3.56,7.43-6.61Zm217.57,8.24c-5.21-1.93-6.01-3.63-4.03-8.76,.27-.7,.63-1.36,.84-2.08,.46-1.56,1.32-2.11,3.05-2.08,7.49,.12,14.98,.05,22.47,.05q4.7,0,6.17,4.34c1.79,5.28,.51,7.34-5.06,8.2-.11,.02-.19,.21-.21,.24h23.57c-4.48-1.18-5.61-4.43-6.83-7.49-6.16-15.49-12.26-31-18.36-46.52-.25-.63-.3-1.53-1.21-.84-3.54,2.69-8.24,3.02-10.27,8.68-4.67,13.01-10.76,25.51-16.31,38.2-1.46,3.35-3.11,6.57-6.88,8.05h13.04Zm96.2-38.12l.46,.09c1.47-4.71,2.95-9.41,4.41-14.13,.38-1.23-.52-1.13-1.28-1.13-15.57,0-31.14,0-46.71-.02-.92,0-1.62,.09-1.79,1.19-.72,4.65-1.46,9.29-2.25,14.26,1.06-.9,1.25-1.89,1.65-2.74,3.31-6.94,8.5-11.08,16.45-11.38,1.93-.07,2.49,.32,2.48,2.33-.09,13.9-.05,27.81-.05,41.71,0,6.07-.63,6.79-6.63,7.58-.1,.01-.18,.21-.28,.34h24.04c-.26-.36-.55-.37-.83-.41-5.09-.78-5.81-1.62-5.81-6.77,0-13.57,0-27.14,0-40.72q0-4.27,4.41-4.04c7.76,.4,11.8,4.69,11.75,12.47,0,.45,0,.9,0,1.35Zm-499.44,0l.46,.1c1.3-4.15,2.62-8.29,3.91-12.44,.88-2.82,.87-2.83-1.98-2.83-14.15,0-28.31,0-42.46,0-4.54,0-4.57,0-5.32,4.34-.61,3.57-1.12,7.15-1.67,10.73,.84-.81,1.26-1.71,1.69-2.6,3.29-6.88,8.52-10.84,16.34-11.15,1.94-.08,2.47,.35,2.46,2.35-.09,13.9-.05,27.81-.05,41.72,0,6.08-.57,6.73-6.64,7.57-.1,.01-.17,.21-.26,.34h24.06c-.58-.36-1.21-.43-1.82-.56-4.04-.82-4.85-1.8-4.86-5.86,0-1.83,0-3.66,0-5.5,0-12.66-.01-25.31,.03-37.97,0-.8-.69-2.09,1.11-2.17,8.76-.37,15.51,2.99,15.01,13.06-.01,.29,0,.58,0,.87Zm191.05-15.14c2.75,1.01,5.25,1.81,5.21,5.63-.12,14.06-.08,28.13-.02,42.19,.01,2.58-1.06,4.07-3.5,4.67-.67,.17-1.32,.38-2.57,.73h22.28c-5.65-1.63-5.82-1.87-5.82-7.32,0-12.81,0-25.63,0-38.44q0-5.34,4.96-7.06c.08-.03,.1-.25,.16-.41h-20.71Z"/><path class="cls-2" d="M445.44,338.04c3.82-9.05,7.43-17.61,11.04-26.16,1.74-4.13,3.53-8.24,5.2-12.41,.53-1.32,1.13-1.95,2.69-1.91,4.53,.13,9.07,.04,13.71,.04-.35,.89-1.01,.72-1.52,.86-2.9,.82-3.6,1.73-3.6,4.79,0,13.5,0,26.99,0,40.49,0,5.21,.32,5.63,5.94,7.09h-22.34c1.35-.39,2.19-.59,3.01-.87,1.92-.66,2.95-1.87,2.94-4.07-.05-14.33-.03-28.65-.47-43.15-6.88,16.24-13.77,32.48-20.8,49.08-7.2-14.37-14.25-28.43-21.64-43.17-.06,1.38-.12,2.07-.12,2.75,0,9.08,.02,18.16,0,27.24,0,2.1,.21,4.17,.67,6.2,.6,2.67,1.71,5.03,4.67,6.01h-12.22c3.63-.84,4.59-3.58,4.97-6.81,.78-6.56,.24-13.15,.36-19.72,.09-5-.24-10.01,.09-14.99,.29-4.29-1.58-7.31-4.41-10.08-.41-.4-.85-.76-1.82-1.62,4.69,0,8.77-.05,12.85,.03,.99,.02,1.08,1.15,1.44,1.86,6,11.95,11.99,23.91,17.99,35.87,.37,.74,.76,1.46,1.37,2.63Z"/><path class="cls-1" d="M120.37,350.9h-21.02l-.05-.24c.83-.24,1.68-.44,2.49-.74,1.81-.66,2.8-1.82,2.79-3.92-.05-14.41-.06-28.82,.01-43.23,.01-2.35-1.15-3.5-3.14-4.18-.66-.22-1.33-.41-1.91-.9h20.7c-.56,.72-1.25,.66-1.84,.83-2.23,.66-3.45,1.94-3.4,4.5,.12,6.33,.07,12.66,.02,18.99-.01,1.38,.12,2.05,1.82,2.03,7.49-.11,14.99-.1,22.49,0,1.59,.02,1.93-.49,1.91-1.97-.08-6.08-.03-12.16-.04-18.24,0-4-.3-4.37-4.28-5.49-.3-.09-.58-.25-1.36-.58h21.24s-.01,.25-.09,.28q-5.05,1.8-5.06,7.25c0,12.74,0,25.49,0,38.23,0,5.49,.14,5.68,5.87,7.34h-21.51s-.03-.28,0-.29q5.18-1.4,5.19-6.79c0-5.5-.05-11,.04-16.49,.03-1.56-.43-1.96-1.96-1.94-7.5,.08-14.99,.07-22.49,0-1.45-.01-1.79,.45-1.78,1.82,.07,5.58,.03,11.16,.03,16.74,0,5.02,.43,5.57,5.34,6.99Z"/><path class="cls-1" d="M363.03,297.61c2.7,0,5.39,0,8.09,0,10.33,0,20.65,.03,30.98-.03,1.58-.01,2.35,.28,2.64,2.02,.62,3.75,1.52,7.44,2.46,11.9-2.12-2.72-3.72-4.9-5.44-6.98-3.05-3.68-7.04-5.45-11.8-5.52-3.25-.05-6.5,.01-9.74-.1-1.34-.04-1.68,.43-1.67,1.7,.05,7.08,.02,14.16,.02,21.24,0,.92-.16,1.86,1.3,1.83,3.66-.06,7.34,.13,10.98-.38,4.47-.63,7.38-3.17,8.93-7.45v16.76s-.22,.02-.23-.02c-1.92-5.75-6.46-7.43-11.91-7.57-2.91-.07-6.7-1.05-8.48,.38-1.83,1.47-.49,5.43-.55,8.29-.09,4.75-.02,9.49-.03,14.24,0,.94-.1,1.85,1.32,1.84,4.33-.04,8.68,.27,12.97-.41,5.33-.84,9.19-4.06,12.33-8.24,1.43-1.91,2.75-3.9,4.53-5.73-1.43,5.7-2.86,11.4-4.36,17.39-1.81-1.77-3.75-1.83-5.79-1.82-11.49,.05-22.99,.03-34.48,.03-.79,0-1.58,0-2.52,0,.47-.93,1.19-.94,1.74-1.21,2.62-1.29,3.91-3.15,3.88-6.3-.14-13.16-.06-26.32-.06-39.48,0-4.22-.21-4.48-4.33-5.69-.28-.08-.55-.24-.82-.36l.06-.35Z"/><path class="cls-1" d="M197.01,315.98v16.63c-1.79-5.4-5.99-7.19-11.1-7.52-2.82-.18-5.66-.03-8.49-.14-1.27-.05-1.5,.46-1.49,1.6,.04,7.24,.02,14.49,.02,21.73,0,.75-.11,1.53,1.07,1.51,4.57-.09,9.16,.32,13.7-.54,5.24-.99,8.88-4.3,11.96-8.37,1.39-1.84,2.66-3.78,4.33-5.57-1.04,4.25-2.09,8.5-3.13,12.75-.14,.56-.28,1.13-.42,1.69-.42,1.66-.62,3.69-3.03,1.55-.67-.59-1.61-.27-2.42-.27-12.64-.02-25.29-.01-37.95-.01,.05-.26,.05-.49,.11-.51,4.2-1.51,5.52-4.42,5.41-8.89-.29-12.07-.1-24.15-.1-36.22q0-5.61-5.75-7.61c1.1-.08,1.66-.15,2.23-.15,12.49,0,24.98,.02,37.47-.05,1.63,0,2.33,.42,2.62,2.08,.63,3.68,1.48,7.32,2.31,11.28-1.56-1-2.2-2.42-3.02-3.64-3.95-5.89-9.35-8.76-16.48-8.38-2.49,.13-5,.07-7.49,0-1.07-.03-1.44,.29-1.44,1.41,.04,7.33,.03,14.66,.01,21.98,0,.87,.15,1.4,1.21,1.38,3.66-.05,7.34,.16,10.97-.38,4.38-.64,7.39-3.05,8.89-7.33Z"/><path class="cls-1" d="M314.51,305.74c0,12.25-.03,23.9,.04,35.56,0,1.55,.45,3.12,.84,4.65,.59,2.3,1.89,4.03,4.33,4.86h-12.75c4.7-.96,5.43-4.28,5.6-7.84,.62-12.73,.12-25.47,.29-38.21,.01-.94-.47-1.55-1.02-2.18-1.54-1.74-3.27-3.27-5.73-4.97,5.14,0,9.66,.02,14.18-.01,1.17,0,1.49,.93,2.04,1.61,9.62,11.92,19.72,23.43,29.6,35.12,.08,.1,.26,.12,.39,.18,.1-.11,.3-.21,.3-.31,.09-9.24,.38-18.48-.19-27.71-.22-3.52-.93-7.04-5.63-8.68h13c-4.76,1.23-5.32,4.85-5.42,8.54-.37,14.32-.35,28.64,.04,42.95,.03,1.08,0,2.16,0,3.85-13.39-15.9-26.49-31.46-39.92-47.41Z"/><path class="cls-1" d="M277.3,342.65c-1.74,3.04-4.39,5.08-7.43,6.61-10.6,5.34-26.18,2.9-34.69-5.38-12.23-11.91-10.56-32,3.72-41.33,9.56-6.24,20.01-7.76,31.01-4.07,.86,.29,1.7,.68,2.5,1.1,2.16,1.13,4.68,2.33,5.53,4.47,.94,2.37-1.95,3.79-3.14,5.6-2.13,3.25-4.6,6.28-7.09,9.34,.92-3.67,1.4-7.34,.4-11-1.42-5.19-4.78-8.56-10.13-9.46-6.19-1.03-11.71,.48-15.41,5.85-4.86,7.07-4.95,15.03-3.17,23.03,1.68,7.56,5.36,13.96,12.3,17.98,7.74,4.48,17.97,3.36,24.62-2.59,.26-.23,.45-.5,.97-.17Z"/><path class="cls-1" d="M494.87,350.89h-13.04c3.77-1.48,5.42-4.7,6.88-8.05,5.54-12.69,11.64-25.19,16.31-38.2,2.03-5.66,6.74-5.99,10.27-8.68,.92-.7,.97,.21,1.21,.84,6.1,15.51,12.2,31.03,18.36,46.52,1.22,3.06,2.35,6.31,6.83,7.49h-23.57s.1-.22,.21-.24c5.57-.86,6.85-2.92,5.06-8.2q-1.47-4.34-6.17-4.34c-7.49,0-14.98,.07-22.47-.05-1.73-.03-2.6,.52-3.05,2.08-.21,.71-.57,1.38-.84,2.08-1.99,5.13-1.18,6.83,4.03,8.76Zm26.23-14.28c-4.51-11.24-8.89-22.16-13.29-33.15-.24,.27-.47,.43-.56,.64-4.49,10.35-8.95,20.72-13.48,31.06-.68,1.55,.15,1.45,1.17,1.45,8.57,0,17.14,0,26.17,0Z"/><path class="cls-1" d="M591.07,312.78c0-.45,0-.9,0-1.35,.05-7.79-3.99-12.08-11.75-12.47q-4.41-.23-4.41,4.04c0,13.57,0,27.14,0,40.72,0,5.15,.72,5.98,5.81,6.77,.29,.04,.58,.06,.83,.41h-24.04c.1-.12,.18-.33,.28-.34,6-.79,6.63-1.51,6.63-7.58,0-13.9-.04-27.81,.05-41.71,.01-2.02-.54-2.4-2.48-2.33-7.96,.3-13.14,4.43-16.45,11.38-.41,.85-.6,1.84-1.65,2.74,.79-4.97,1.53-9.62,2.25-14.26,.17-1.1,.87-1.19,1.79-1.19,15.57,.02,31.14,.02,46.71,.02,.76,0,1.66-.11,1.28,1.13-1.45,4.71-2.94,9.42-4.41,14.13l-.46-.09Z"/><path class="cls-1" d="M91.63,312.78c0-.29-.01-.58,0-.87,.5-10.07-6.24-13.43-15.01-13.06-1.8,.08-1.11,1.37-1.11,2.17-.04,12.66-.03,25.31-.03,37.97,0,1.83,0,3.66,0,5.5,0,4.05,.82,5.04,4.86,5.86,.62,.12,1.24,.2,1.82,.56h-24.06c.09-.13,.17-.33,.26-.34,6.07-.84,6.64-1.48,6.64-7.57,0-13.91-.04-27.81,.05-41.72,.01-2-.52-2.42-2.46-2.35-7.82,.31-13.05,4.27-16.34,11.15-.42,.89-.85,1.78-1.69,2.6,.55-3.58,1.06-7.16,1.67-10.73,.74-4.35,.78-4.34,5.32-4.34,14.15,0,28.31,0,42.46,0,2.85,0,2.86,0,1.98,2.83-1.29,4.15-2.6,8.3-3.91,12.44l-.46-.1Z"/><path class="cls-2" d="M282.68,297.64h20.71c-.06,.16-.08,.38-.16,.41q-4.95,1.72-4.96,7.06c0,12.81,0,25.63,0,38.44,0,5.44,.17,5.69,5.82,7.32h-22.28c1.24-.36,1.9-.57,2.57-.73,2.45-.61,3.52-2.09,3.5-4.67-.06-14.06-.1-28.13,.02-42.19,.03-3.82-2.47-4.62-5.21-5.63Z"/><path class="cls-3" d="M521.1,336.62c-9.03,0-17.6,0-26.17,0-1.02,0-1.85,.1-1.17-1.45,4.53-10.34,8.99-20.71,13.48-31.06,.09-.21,.32-.37,.56-.64,4.41,10.99,8.79,21.9,13.29,33.15Z"/></g></g></svg>